<mxfile host="app.diagrams.net" modified="2022-08-22T08:49:34.575Z" agent="5.0 (Macintosh; Intel Mac OS X 10_15_7) AppleWebKit/537.36 (KHTML, like Gecko) Chrome/104.0.0.0 Safari/537.36" etag="zyLRPQpqRI-Udu7u0XAz" version="20.0.4" type="github">
  <diagram id="WDN-9oJWQax0fZ9lIsQJ" name="第 1 页">
    <mxGraphModel dx="2013" dy="613" grid="1" gridSize="10" guides="1" tooltips="1" connect="1" arrows="1" fold="1" page="1" pageScale="1" pageWidth="827" pageHeight="1169" math="0" shadow="0">
      <root>
        <mxCell id="0" />
        <mxCell id="1" parent="0" />
        <mxCell id="NFyLuNrWnH0UtmpVPblO-1" value="&lt;font style=&quot;font-size: 14px&quot;&gt;&lt;b&gt;张北中心机房&lt;/b&gt;&lt;/font&gt;" style="rounded=1;whiteSpace=wrap;html=1;align=center;verticalAlign=top;dashed=1;" vertex="1" parent="1">
          <mxGeometry x="-50" y="200" width="680" height="480" as="geometry" />
        </mxCell>
        <mxCell id="NFyLuNrWnH0UtmpVPblO-2" value="&lt;b&gt;&lt;font style=&quot;font-size: 14px&quot;&gt;张北机房&lt;/font&gt;&lt;/b&gt;" style="rounded=1;whiteSpace=wrap;html=1;dashed=1;verticalAlign=top;" vertex="1" parent="1">
          <mxGeometry x="840" y="200" width="710" height="480" as="geometry" />
        </mxCell>
        <mxCell id="NFyLuNrWnH0UtmpVPblO-3" value="ADS&lt;br&gt;物流协同" style="rounded=0;whiteSpace=wrap;html=1;fillColor=#dae8fc;strokeColor=#6c8ebf;" vertex="1" parent="1">
          <mxGeometry x="520" y="440" width="90" height="40" as="geometry" />
        </mxCell>
        <mxCell id="NFyLuNrWnH0UtmpVPblO-4" value="" style="group" vertex="1" connectable="0" parent="1">
          <mxGeometry x="-10" y="550" width="540" height="110" as="geometry" />
        </mxCell>
        <mxCell id="NFyLuNrWnH0UtmpVPblO-5" value="&lt;b&gt;履约保障域&lt;/b&gt;" style="rounded=0;whiteSpace=wrap;html=1;dashed=1;fillColor=#f8cecc;strokeColor=#b85450;verticalAlign=top;" vertex="1" parent="NFyLuNrWnH0UtmpVPblO-4">
          <mxGeometry width="540" height="110" as="geometry" />
        </mxCell>
        <mxCell id="NFyLuNrWnH0UtmpVPblO-6" value="alsc-cs-summer&lt;br&gt;数据产品" style="rounded=0;whiteSpace=wrap;html=1;" vertex="1" parent="NFyLuNrWnH0UtmpVPblO-4">
          <mxGeometry x="30" y="20" width="90" height="40" as="geometry" />
        </mxCell>
        <mxCell id="NFyLuNrWnH0UtmpVPblO-7" value="alsc-cs-autumn&lt;br&gt;热斧" style="rounded=0;whiteSpace=wrap;html=1;" vertex="1" parent="NFyLuNrWnH0UtmpVPblO-4">
          <mxGeometry x="150" y="20" width="90" height="40" as="geometry" />
        </mxCell>
        <mxCell id="NFyLuNrWnH0UtmpVPblO-8" value="alsc-cs-reverse&lt;br&gt;负向管控" style="rounded=0;whiteSpace=wrap;html=1;" vertex="1" parent="NFyLuNrWnH0UtmpVPblO-4">
          <mxGeometry x="270" y="20" width="90" height="40" as="geometry" />
        </mxCell>
        <mxCell id="NFyLuNrWnH0UtmpVPblO-9" value="alsc-cs-reverseboard&lt;br&gt;负向管控管理" style="rounded=0;whiteSpace=wrap;html=1;" vertex="1" parent="NFyLuNrWnH0UtmpVPblO-4">
          <mxGeometry x="384" y="20" width="120" height="40" as="geometry" />
        </mxCell>
        <mxCell id="NFyLuNrWnH0UtmpVPblO-10" value="信号库" style="strokeWidth=2;html=1;shape=mxgraph.flowchart.database;whiteSpace=wrap;" vertex="1" parent="NFyLuNrWnH0UtmpVPblO-4">
          <mxGeometry x="35" y="70" width="80" height="30" as="geometry" />
        </mxCell>
        <mxCell id="NFyLuNrWnH0UtmpVPblO-11" value="热斧库" style="strokeWidth=2;html=1;shape=mxgraph.flowchart.database;whiteSpace=wrap;" vertex="1" parent="NFyLuNrWnH0UtmpVPblO-4">
          <mxGeometry x="155" y="70" width="80" height="30" as="geometry" />
        </mxCell>
        <mxCell id="NFyLuNrWnH0UtmpVPblO-12" value="负向库" style="strokeWidth=2;html=1;shape=mxgraph.flowchart.database;whiteSpace=wrap;" vertex="1" parent="NFyLuNrWnH0UtmpVPblO-4">
          <mxGeometry x="275" y="70" width="80" height="30" as="geometry" />
        </mxCell>
        <mxCell id="NFyLuNrWnH0UtmpVPblO-13" value="负向策略库" style="strokeWidth=2;html=1;shape=mxgraph.flowchart.database;whiteSpace=wrap;" vertex="1" parent="NFyLuNrWnH0UtmpVPblO-4">
          <mxGeometry x="404" y="70" width="80" height="30" as="geometry" />
        </mxCell>
        <mxCell id="NFyLuNrWnH0UtmpVPblO-14" value="" style="group" vertex="1" connectable="0" parent="1">
          <mxGeometry x="960" y="530" width="540" height="110" as="geometry" />
        </mxCell>
        <mxCell id="NFyLuNrWnH0UtmpVPblO-15" value="&lt;b&gt;物流履行域&lt;/b&gt;" style="rounded=0;whiteSpace=wrap;html=1;dashed=1;fillColor=#dae8fc;strokeColor=#6c8ebf;verticalAlign=top;" vertex="1" parent="NFyLuNrWnH0UtmpVPblO-14">
          <mxGeometry width="540" height="110" as="geometry" />
        </mxCell>
        <mxCell id="NFyLuNrWnH0UtmpVPblO-16" value="apollo-elemis&lt;br&gt;运力门面" style="rounded=0;whiteSpace=wrap;html=1;" vertex="1" parent="NFyLuNrWnH0UtmpVPblO-14">
          <mxGeometry x="180" y="20" width="90" height="40" as="geometry" />
        </mxCell>
        <mxCell id="NFyLuNrWnH0UtmpVPblO-17" value="apollo.sos.core&lt;br&gt;运力核心" style="rounded=0;whiteSpace=wrap;html=1;" vertex="1" parent="NFyLuNrWnH0UtmpVPblO-14">
          <mxGeometry x="290" y="20" width="90" height="40" as="geometry" />
        </mxCell>
        <mxCell id="NFyLuNrWnH0UtmpVPblO-18" value="apollo-ts&lt;br&gt;运力消息" style="rounded=0;whiteSpace=wrap;html=1;" vertex="1" parent="NFyLuNrWnH0UtmpVPblO-14">
          <mxGeometry x="400" y="20" width="90" height="40" as="geometry" />
        </mxCell>
        <mxCell id="NFyLuNrWnH0UtmpVPblO-19" value="lpd_sp.order_core&lt;br&gt;物流履约" style="rounded=0;whiteSpace=wrap;html=1;" vertex="1" parent="NFyLuNrWnH0UtmpVPblO-14">
          <mxGeometry x="50" y="20" width="110" height="40" as="geometry" />
        </mxCell>
        <mxCell id="NFyLuNrWnH0UtmpVPblO-20" value="物流履约库" style="strokeWidth=2;html=1;shape=mxgraph.flowchart.database;whiteSpace=wrap;" vertex="1" parent="NFyLuNrWnH0UtmpVPblO-14">
          <mxGeometry x="65" y="70" width="80" height="30" as="geometry" />
        </mxCell>
        <mxCell id="NFyLuNrWnH0UtmpVPblO-21" value="运单库" style="strokeWidth=2;html=1;shape=mxgraph.flowchart.database;whiteSpace=wrap;" vertex="1" parent="NFyLuNrWnH0UtmpVPblO-14">
          <mxGeometry x="180" y="70" width="195" height="30" as="geometry" />
        </mxCell>
        <mxCell id="NFyLuNrWnH0UtmpVPblO-22" value="" style="group;fillColor=#ffffff;" vertex="1" connectable="0" parent="1">
          <mxGeometry x="960" y="290" width="540" height="110" as="geometry" />
        </mxCell>
        <mxCell id="NFyLuNrWnH0UtmpVPblO-23" value="&lt;b&gt;商户履行域&lt;/b&gt;" style="rounded=0;whiteSpace=wrap;html=1;dashed=1;fillColor=#ffe6cc;strokeColor=#d79b00;verticalAlign=top;" vertex="1" parent="NFyLuNrWnH0UtmpVPblO-22">
          <mxGeometry width="540" height="110" as="geometry" />
        </mxCell>
        <mxCell id="NFyLuNrWnH0UtmpVPblO-24" value="fulfill-order-prod&lt;br&gt;商家履约产品" style="rounded=0;whiteSpace=wrap;html=1;" vertex="1" parent="NFyLuNrWnH0UtmpVPblO-22">
          <mxGeometry x="120" y="20" width="90" height="40" as="geometry" />
        </mxCell>
        <mxCell id="NFyLuNrWnH0UtmpVPblO-25" value="fulfill-order-core&lt;br&gt;商家履约核心" style="rounded=0;whiteSpace=wrap;html=1;" vertex="1" parent="NFyLuNrWnH0UtmpVPblO-22">
          <mxGeometry x="225" y="20" width="90" height="40" as="geometry" />
        </mxCell>
        <mxCell id="NFyLuNrWnH0UtmpVPblO-26" value="trans-delivery&lt;br&gt;履约协同" style="rounded=0;whiteSpace=wrap;html=1;" vertex="1" parent="NFyLuNrWnH0UtmpVPblO-22">
          <mxGeometry x="330" y="20" width="90" height="40" as="geometry" />
        </mxCell>
        <mxCell id="NFyLuNrWnH0UtmpVPblO-27" value="fulfill-strategy&lt;br&gt;商家履约策略" style="rounded=0;whiteSpace=wrap;html=1;" vertex="1" parent="NFyLuNrWnH0UtmpVPblO-22">
          <mxGeometry x="430" y="20" width="90" height="40" as="geometry" />
        </mxCell>
        <mxCell id="NFyLuNrWnH0UtmpVPblO-28" value="协同库" style="strokeWidth=2;html=1;shape=mxgraph.flowchart.database;whiteSpace=wrap;" vertex="1" parent="NFyLuNrWnH0UtmpVPblO-22">
          <mxGeometry x="335" y="70" width="80" height="30" as="geometry" />
        </mxCell>
        <mxCell id="NFyLuNrWnH0UtmpVPblO-29" value="策略库" style="strokeWidth=2;html=1;shape=mxgraph.flowchart.database;whiteSpace=wrap;" vertex="1" parent="NFyLuNrWnH0UtmpVPblO-22">
          <mxGeometry x="435" y="70" width="80" height="30" as="geometry" />
        </mxCell>
        <mxCell id="NFyLuNrWnH0UtmpVPblO-30" value="fulfill-notify&lt;br&gt;商家履约触达" style="rounded=0;whiteSpace=wrap;html=1;strokeColor=#FF0000;dashed=1;" vertex="1" parent="NFyLuNrWnH0UtmpVPblO-22">
          <mxGeometry x="10" y="20" width="90" height="80" as="geometry" />
        </mxCell>
        <mxCell id="NFyLuNrWnH0UtmpVPblO-31" value="履行库" style="strokeWidth=2;html=1;shape=mxgraph.flowchart.database;whiteSpace=wrap;" vertex="1" parent="NFyLuNrWnH0UtmpVPblO-22">
          <mxGeometry x="120" y="70" width="195" height="30" as="geometry" />
        </mxCell>
        <mxCell id="NFyLuNrWnH0UtmpVPblO-32" value="" style="group" vertex="1" connectable="0" parent="1">
          <mxGeometry x="200" y="260" width="310" height="220" as="geometry" />
        </mxCell>
        <mxCell id="NFyLuNrWnH0UtmpVPblO-33" value="&lt;b&gt;交易履约域&lt;/b&gt;" style="rounded=0;whiteSpace=wrap;html=1;dashed=1;fillColor=#d5e8d4;strokeColor=#82b366;verticalAlign=top;" vertex="1" parent="NFyLuNrWnH0UtmpVPblO-32">
          <mxGeometry width="310" height="220" as="geometry" />
        </mxCell>
        <mxCell id="NFyLuNrWnH0UtmpVPblO-34" value="ATC&lt;br&gt;本地订单" style="rounded=0;whiteSpace=wrap;html=1;" vertex="1" parent="NFyLuNrWnH0UtmpVPblO-32">
          <mxGeometry x="110" y="30" width="90" height="40" as="geometry" />
        </mxCell>
        <mxCell id="NFyLuNrWnH0UtmpVPblO-35" value="CP/PP&lt;br&gt;支付系统" style="rounded=0;whiteSpace=wrap;html=1;" vertex="1" parent="NFyLuNrWnH0UtmpVPblO-32">
          <mxGeometry x="214" y="30" width="80" height="40" as="geometry" />
        </mxCell>
        <mxCell id="NFyLuNrWnH0UtmpVPblO-36" value="ARP&lt;br&gt;交易逆向" style="rounded=0;whiteSpace=wrap;html=1;" vertex="1" parent="NFyLuNrWnH0UtmpVPblO-32">
          <mxGeometry x="10" y="120" width="90" height="40" as="geometry" />
        </mxCell>
        <mxCell id="NFyLuNrWnH0UtmpVPblO-37" value="AFP2&lt;br&gt;交易履约" style="rounded=0;whiteSpace=wrap;html=1;" vertex="1" parent="NFyLuNrWnH0UtmpVPblO-32">
          <mxGeometry x="110" y="120" width="90" height="40" as="geometry" />
        </mxCell>
        <mxCell id="NFyLuNrWnH0UtmpVPblO-38" value="BUY2&lt;br&gt;下单系统" style="rounded=0;whiteSpace=wrap;html=1;" vertex="1" parent="NFyLuNrWnH0UtmpVPblO-32">
          <mxGeometry x="10" y="30" width="90" height="40" as="geometry" />
        </mxCell>
        <mxCell id="NFyLuNrWnH0UtmpVPblO-39" value="订单库" style="strokeWidth=2;html=1;shape=mxgraph.flowchart.database;whiteSpace=wrap;" vertex="1" parent="NFyLuNrWnH0UtmpVPblO-32">
          <mxGeometry x="20" y="78" width="180" height="30" as="geometry" />
        </mxCell>
        <mxCell id="NFyLuNrWnH0UtmpVPblO-40" value="履约单" style="strokeWidth=2;html=1;shape=mxgraph.flowchart.database;whiteSpace=wrap;" vertex="1" parent="NFyLuNrWnH0UtmpVPblO-32">
          <mxGeometry x="115" y="170" width="80" height="30" as="geometry" />
        </mxCell>
        <mxCell id="NFyLuNrWnH0UtmpVPblO-41" value="逆向单" style="strokeWidth=2;html=1;shape=mxgraph.flowchart.database;whiteSpace=wrap;" vertex="1" parent="NFyLuNrWnH0UtmpVPblO-32">
          <mxGeometry x="15" y="170" width="80" height="30" as="geometry" />
        </mxCell>
        <mxCell id="NFyLuNrWnH0UtmpVPblO-42" value="支付单" style="strokeWidth=2;html=1;shape=mxgraph.flowchart.database;whiteSpace=wrap;" vertex="1" parent="NFyLuNrWnH0UtmpVPblO-32">
          <mxGeometry x="214" y="78" width="80" height="30" as="geometry" />
        </mxCell>
        <mxCell id="NFyLuNrWnH0UtmpVPblO-43" value="&lt;font style=&quot;font-size: 14px&quot;&gt;&lt;b&gt;南通机房&lt;/b&gt;&lt;/font&gt;" style="rounded=1;whiteSpace=wrap;html=1;align=center;verticalAlign=top;dashed=1;" vertex="1" parent="1">
          <mxGeometry x="-50" y="790" width="680" height="360" as="geometry" />
        </mxCell>
        <mxCell id="NFyLuNrWnH0UtmpVPblO-44" value="" style="group" vertex="1" connectable="0" parent="1">
          <mxGeometry x="-20" y="850" width="530" height="220" as="geometry" />
        </mxCell>
        <mxCell id="NFyLuNrWnH0UtmpVPblO-45" value="&lt;b&gt;交易履约域&lt;/b&gt;" style="rounded=0;whiteSpace=wrap;html=1;dashed=1;fillColor=#d5e8d4;strokeColor=#82b366;verticalAlign=top;" vertex="1" parent="NFyLuNrWnH0UtmpVPblO-44">
          <mxGeometry width="530" height="220" as="geometry" />
        </mxCell>
        <mxCell id="NFyLuNrWnH0UtmpVPblO-46" value="ATC&lt;br&gt;本地订单" style="rounded=0;whiteSpace=wrap;html=1;" vertex="1" parent="NFyLuNrWnH0UtmpVPblO-44">
          <mxGeometry x="188.06451612903226" y="30" width="153.8709677419355" height="40" as="geometry" />
        </mxCell>
        <mxCell id="NFyLuNrWnH0UtmpVPblO-47" value="CP/PP&lt;br&gt;支付系统" style="rounded=0;whiteSpace=wrap;html=1;" vertex="1" parent="NFyLuNrWnH0UtmpVPblO-44">
          <mxGeometry x="365.8709677419355" y="30" width="136.7741935483871" height="40" as="geometry" />
        </mxCell>
        <mxCell id="NFyLuNrWnH0UtmpVPblO-48" value="ARP&lt;br&gt;交易逆向" style="rounded=0;whiteSpace=wrap;html=1;strokeColor=#FF0000;dashed=1;" vertex="1" parent="NFyLuNrWnH0UtmpVPblO-44">
          <mxGeometry x="17.1" y="120" width="153.87" height="90" as="geometry" />
        </mxCell>
        <mxCell id="NFyLuNrWnH0UtmpVPblO-49" value="AFP2&lt;br&gt;交易履约" style="rounded=0;whiteSpace=wrap;html=1;strokeColor=#FF0000;dashed=1;" vertex="1" parent="NFyLuNrWnH0UtmpVPblO-44">
          <mxGeometry x="188.06" y="120" width="153.87" height="90" as="geometry" />
        </mxCell>
        <mxCell id="NFyLuNrWnH0UtmpVPblO-50" value="BUY2&lt;br&gt;下单系统" style="rounded=0;whiteSpace=wrap;html=1;" vertex="1" parent="NFyLuNrWnH0UtmpVPblO-44">
          <mxGeometry x="17.096774193548388" y="30" width="153.8709677419355" height="40" as="geometry" />
        </mxCell>
        <mxCell id="NFyLuNrWnH0UtmpVPblO-51" value="订单库" style="strokeWidth=2;html=1;shape=mxgraph.flowchart.database;whiteSpace=wrap;" vertex="1" parent="NFyLuNrWnH0UtmpVPblO-44">
          <mxGeometry x="34.193548387096776" y="78" width="307.741935483871" height="30" as="geometry" />
        </mxCell>
        <mxCell id="NFyLuNrWnH0UtmpVPblO-52" value="支付单" style="strokeWidth=2;html=1;shape=mxgraph.flowchart.database;whiteSpace=wrap;" vertex="1" parent="NFyLuNrWnH0UtmpVPblO-44">
          <mxGeometry x="365.8709677419355" y="78" width="136.7741935483871" height="30" as="geometry" />
        </mxCell>
        <mxCell id="NFyLuNrWnH0UtmpVPblO-53" value="&lt;span style=&quot;font-size: 14px&quot;&gt;&lt;b&gt;南通机房&lt;/b&gt;&lt;/span&gt;" style="rounded=1;whiteSpace=wrap;html=1;dashed=1;verticalAlign=top;" vertex="1" parent="1">
          <mxGeometry x="840" y="790" width="720" height="360" as="geometry" />
        </mxCell>
        <mxCell id="NFyLuNrWnH0UtmpVPblO-54" value="" style="group" vertex="1" connectable="0" parent="1">
          <mxGeometry x="971" y="1010" width="540" height="110" as="geometry" />
        </mxCell>
        <mxCell id="NFyLuNrWnH0UtmpVPblO-55" value="&lt;b&gt;物流履行域&lt;/b&gt;" style="rounded=0;whiteSpace=wrap;html=1;dashed=1;fillColor=#dae8fc;strokeColor=#6c8ebf;verticalAlign=top;" vertex="1" parent="NFyLuNrWnH0UtmpVPblO-54">
          <mxGeometry width="540" height="110" as="geometry" />
        </mxCell>
        <mxCell id="NFyLuNrWnH0UtmpVPblO-56" value="apollo-elemis&lt;br&gt;运力门面" style="rounded=0;whiteSpace=wrap;html=1;" vertex="1" parent="NFyLuNrWnH0UtmpVPblO-54">
          <mxGeometry x="180" y="20" width="90" height="40" as="geometry" />
        </mxCell>
        <mxCell id="NFyLuNrWnH0UtmpVPblO-57" value="apollo.sos.core&lt;br&gt;运力核心" style="rounded=0;whiteSpace=wrap;html=1;" vertex="1" parent="NFyLuNrWnH0UtmpVPblO-54">
          <mxGeometry x="290" y="20" width="90" height="40" as="geometry" />
        </mxCell>
        <mxCell id="NFyLuNrWnH0UtmpVPblO-58" value="apollo-ts&lt;br&gt;运力消息" style="rounded=0;whiteSpace=wrap;html=1;" vertex="1" parent="NFyLuNrWnH0UtmpVPblO-54">
          <mxGeometry x="400" y="20" width="90" height="40" as="geometry" />
        </mxCell>
        <mxCell id="NFyLuNrWnH0UtmpVPblO-59" value="lpd_sp.order_core&lt;br&gt;物流履约" style="rounded=0;whiteSpace=wrap;html=1;" vertex="1" parent="NFyLuNrWnH0UtmpVPblO-54">
          <mxGeometry x="50" y="20" width="110" height="40" as="geometry" />
        </mxCell>
        <mxCell id="NFyLuNrWnH0UtmpVPblO-60" value="物流履约库" style="strokeWidth=2;html=1;shape=mxgraph.flowchart.database;whiteSpace=wrap;" vertex="1" parent="NFyLuNrWnH0UtmpVPblO-54">
          <mxGeometry x="65" y="70" width="80" height="30" as="geometry" />
        </mxCell>
        <mxCell id="NFyLuNrWnH0UtmpVPblO-61" value="运单库" style="strokeWidth=2;html=1;shape=mxgraph.flowchart.database;whiteSpace=wrap;" vertex="1" parent="NFyLuNrWnH0UtmpVPblO-54">
          <mxGeometry x="180" y="70" width="300" height="30" as="geometry" />
        </mxCell>
        <mxCell id="NFyLuNrWnH0UtmpVPblO-62" value="&lt;span style=&quot;font-size: 14px;&quot;&gt;msha&lt;/span&gt;" style="rounded=1;whiteSpace=wrap;html=1;fontSize=14;" vertex="1" parent="1">
          <mxGeometry x="610" y="410" width="50" height="20" as="geometry" />
        </mxCell>
        <mxCell id="NFyLuNrWnH0UtmpVPblO-63" value="&lt;span style=&quot;font-size: 14px;&quot;&gt;msha&lt;/span&gt;" style="rounded=1;whiteSpace=wrap;html=1;fontSize=14;" vertex="1" parent="1">
          <mxGeometry x="810" y="410" width="50" height="20" as="geometry" />
        </mxCell>
        <mxCell id="NFyLuNrWnH0UtmpVPblO-64" value="&lt;span style=&quot;font-size: 14px;&quot;&gt;msha&lt;/span&gt;" style="rounded=1;whiteSpace=wrap;html=1;fontSize=14;" vertex="1" parent="1">
          <mxGeometry x="820" y="960" width="40" height="20" as="geometry" />
        </mxCell>
        <mxCell id="NFyLuNrWnH0UtmpVPblO-65" value="&lt;span style=&quot;font-size: 14px;&quot;&gt;msha&lt;/span&gt;" style="rounded=1;whiteSpace=wrap;html=1;fontSize=14;" vertex="1" parent="1">
          <mxGeometry x="610" y="960" width="50" height="20" as="geometry" />
        </mxCell>
        <mxCell id="NFyLuNrWnH0UtmpVPblO-66" value="&lt;b style=&quot;text-align: left&quot;&gt;&lt;span style=&quot;color: red&quot;&gt;异步多活&lt;/span&gt;&lt;span style=&quot;color: red&quot;&gt;：&lt;/span&gt;&lt;span style=&quot;font-family: &amp;#34;arial&amp;#34; ; color: red&quot;&gt;DRC&lt;/span&gt;&lt;span style=&quot;color: red&quot;&gt;双向数据同步&lt;/span&gt;&lt;/b&gt;" style="shape=flexArrow;endArrow=classic;startArrow=classic;html=1;strokeWidth=1;exitX=0.279;exitY=0.002;exitDx=0;exitDy=0;exitPerimeter=0;" edge="1" parent="1" source="NFyLuNrWnH0UtmpVPblO-43">
          <mxGeometry y="-90" width="100" height="100" relative="1" as="geometry">
            <mxPoint x="139.51999999999998" y="760" as="sourcePoint" />
            <mxPoint x="140" y="690" as="targetPoint" />
            <mxPoint as="offset" />
          </mxGeometry>
        </mxCell>
        <mxCell id="NFyLuNrWnH0UtmpVPblO-67" value="" style="shape=flexArrow;endArrow=classic;html=1;strokeWidth=1;" edge="1" parent="1">
          <mxGeometry width="50" height="50" relative="1" as="geometry">
            <mxPoint x="350" y="780" as="sourcePoint" />
            <mxPoint x="350" y="690" as="targetPoint" />
          </mxGeometry>
        </mxCell>
        <mxCell id="NFyLuNrWnH0UtmpVPblO-68" value="&lt;font color=&quot;#ff0000&quot;&gt;&lt;b&gt;订单消息全量同步&lt;/b&gt;&lt;/font&gt;" style="edgeLabel;html=1;align=center;verticalAlign=middle;resizable=0;points=[];" vertex="1" connectable="0" parent="NFyLuNrWnH0UtmpVPblO-67">
          <mxGeometry x="-0.2152" y="-5" relative="1" as="geometry">
            <mxPoint x="45" y="-2" as="offset" />
          </mxGeometry>
        </mxCell>
        <mxCell id="NFyLuNrWnH0UtmpVPblO-69" value="&lt;b style=&quot;text-align: left&quot;&gt;&lt;span style=&quot;color: red&quot;&gt;异步多活&lt;/span&gt;&lt;span style=&quot;color: red&quot;&gt;：&lt;/span&gt;&lt;span style=&quot;font-family: &amp;#34;arial&amp;#34; ; color: red&quot;&gt;DRC&lt;/span&gt;&lt;span style=&quot;color: red&quot;&gt;双向数据同步&lt;/span&gt;&lt;/b&gt;" style="shape=flexArrow;endArrow=classic;startArrow=classic;html=1;strokeWidth=1;exitX=0.279;exitY=0.002;exitDx=0;exitDy=0;exitPerimeter=0;" edge="1" parent="1">
          <mxGeometry y="-90" width="100" height="100" relative="1" as="geometry">
            <mxPoint x="1179" y="790" as="sourcePoint" />
            <mxPoint x="1179.2799999999997" y="689.04" as="targetPoint" />
            <mxPoint as="offset" />
          </mxGeometry>
        </mxCell>
        <mxCell id="NFyLuNrWnH0UtmpVPblO-70" value="" style="html=1;verticalLabelPosition=bottom;align=center;labelBackgroundColor=#ffffff;verticalAlign=top;strokeWidth=2;strokeColor=#0080F0;shadow=0;dashed=0;shape=mxgraph.ios7.icons.user;" vertex="1" parent="1">
          <mxGeometry x="260" y="100" width="40" height="40" as="geometry" />
        </mxCell>
        <mxCell id="NFyLuNrWnH0UtmpVPblO-71" value="" style="shape=flexArrow;endArrow=classic;html=1;fontSize=14;" edge="1" parent="1">
          <mxGeometry width="50" height="50" relative="1" as="geometry">
            <mxPoint x="279.5" y="146" as="sourcePoint" />
            <mxPoint x="279.5" y="196" as="targetPoint" />
          </mxGeometry>
        </mxCell>
        <mxCell id="NFyLuNrWnH0UtmpVPblO-72" value="&lt;meta charset=&quot;utf-8&quot;&gt;&lt;b style=&quot;color: rgb(0, 0, 0); font-family: helvetica; font-size: 12px; font-style: normal; letter-spacing: normal; text-align: center; text-indent: 0px; text-transform: none; word-spacing: 0px; background-color: rgb(248, 249, 250);&quot;&gt;uid路由&lt;/b&gt;" style="text;whiteSpace=wrap;html=1;fontSize=14;" vertex="1" parent="1">
          <mxGeometry x="290" y="150" width="70" height="30" as="geometry" />
        </mxCell>
        <mxCell id="NFyLuNrWnH0UtmpVPblO-73" value="" style="verticalLabelPosition=bottom;html=1;verticalAlign=top;align=center;strokeColor=none;fillColor=#00BEF2;shape=mxgraph.azure.user;glass=1;dashed=1;dashPattern=1 1;" vertex="1" parent="1">
          <mxGeometry x="1155" y="100" width="30" height="30" as="geometry" />
        </mxCell>
        <mxCell id="NFyLuNrWnH0UtmpVPblO-74" value="" style="shape=flexArrow;endArrow=classic;html=1;fontSize=14;" edge="1" parent="1">
          <mxGeometry width="50" height="50" relative="1" as="geometry">
            <mxPoint x="1172.75" y="144" as="sourcePoint" />
            <mxPoint x="1172.75" y="194" as="targetPoint" />
          </mxGeometry>
        </mxCell>
        <mxCell id="NFyLuNrWnH0UtmpVPblO-75" value="&lt;font style=&quot;font-size: 12px;&quot;&gt;商户/骑手&lt;/font&gt;" style="text;html=1;align=center;verticalAlign=middle;resizable=0;points=[];autosize=1;strokeColor=none;fontSize=12;" vertex="1" parent="1">
          <mxGeometry x="1180" y="110" width="70" height="20" as="geometry" />
        </mxCell>
        <mxCell id="NFyLuNrWnH0UtmpVPblO-76" value="&lt;div style=&quot;text-align: center&quot;&gt;&lt;font face=&quot;helvetica&quot;&gt;&lt;span style=&quot;font-size: 12px&quot;&gt;&lt;b&gt;shop_id/loc路由&lt;/b&gt;&lt;/span&gt;&lt;/font&gt;&lt;/div&gt;" style="text;whiteSpace=wrap;html=1;fontSize=14;" vertex="1" parent="1">
          <mxGeometry x="1185" y="150" width="95" height="30" as="geometry" />
        </mxCell>
        <mxCell id="NFyLuNrWnH0UtmpVPblO-77" value="" style="shape=flexArrow;endArrow=classic;startArrow=classic;html=1;fontSize=12;entryX=0.636;entryY=1;entryDx=0;entryDy=0;entryPerimeter=0;" edge="1" parent="1" target="NFyLuNrWnH0UtmpVPblO-95">
          <mxGeometry width="100" height="100" relative="1" as="geometry">
            <mxPoint x="110" y="540" as="sourcePoint" />
            <mxPoint x="110" y="490" as="targetPoint" />
          </mxGeometry>
        </mxCell>
        <mxCell id="NFyLuNrWnH0UtmpVPblO-78" value="履约事件/履约表达干预" style="edgeLabel;html=1;align=center;verticalAlign=middle;resizable=0;points=[];fontSize=12;" vertex="1" connectable="0" parent="NFyLuNrWnH0UtmpVPblO-77">
          <mxGeometry x="0.0332" y="-3" relative="1" as="geometry">
            <mxPoint x="-3" y="1" as="offset" />
          </mxGeometry>
        </mxCell>
        <mxCell id="NFyLuNrWnH0UtmpVPblO-79" value="" style="shape=flexArrow;endArrow=classic;startArrow=classic;html=1;fontSize=12;entryX=0.636;entryY=1;entryDx=0;entryDy=0;entryPerimeter=0;" edge="1" parent="1">
          <mxGeometry width="100" height="100" relative="1" as="geometry">
            <mxPoint x="340.0799999999999" y="540" as="sourcePoint" />
            <mxPoint x="340" y="480" as="targetPoint" />
          </mxGeometry>
        </mxCell>
        <mxCell id="NFyLuNrWnH0UtmpVPblO-80" value="订单事件/履约流程干预" style="edgeLabel;html=1;align=center;verticalAlign=middle;resizable=0;points=[];fontSize=12;" vertex="1" connectable="0" parent="NFyLuNrWnH0UtmpVPblO-79">
          <mxGeometry x="-0.1667" relative="1" as="geometry">
            <mxPoint y="-5" as="offset" />
          </mxGeometry>
        </mxCell>
        <mxCell id="NFyLuNrWnH0UtmpVPblO-81" value="物流事件/履行干预" style="shape=flexArrow;endArrow=classic;startArrow=classic;html=1;fontSize=12;" edge="1" parent="1">
          <mxGeometry x="-0.1429" y="30" width="100" height="100" relative="1" as="geometry">
            <mxPoint x="550" y="600" as="sourcePoint" />
            <mxPoint x="620" y="600" as="targetPoint" />
            <mxPoint as="offset" />
          </mxGeometry>
        </mxCell>
        <mxCell id="NFyLuNrWnH0UtmpVPblO-82" value="" style="shape=flexArrow;endArrow=classic;startArrow=classic;html=1;fontSize=12;exitX=1;exitY=0.5;exitDx=0;exitDy=0;entryX=0;entryY=0.5;entryDx=0;entryDy=0;" edge="1" parent="1" source="NFyLuNrWnH0UtmpVPblO-62" target="NFyLuNrWnH0UtmpVPblO-63">
          <mxGeometry width="100" height="100" relative="1" as="geometry">
            <mxPoint x="710" y="530" as="sourcePoint" />
            <mxPoint x="810" y="430" as="targetPoint" />
          </mxGeometry>
        </mxCell>
        <mxCell id="NFyLuNrWnH0UtmpVPblO-83" value="" style="shape=flexArrow;endArrow=classic;startArrow=classic;html=1;fontSize=12;entryX=0;entryY=0;entryDx=0;entryDy=0;" edge="1" parent="1" target="NFyLuNrWnH0UtmpVPblO-64">
          <mxGeometry width="100" height="100" relative="1" as="geometry">
            <mxPoint x="640" y="430" as="sourcePoint" />
            <mxPoint x="760" y="810" as="targetPoint" />
          </mxGeometry>
        </mxCell>
        <mxCell id="NFyLuNrWnH0UtmpVPblO-84" value="" style="group" vertex="1" connectable="0" parent="1">
          <mxGeometry x="971" y="870" width="540" height="110" as="geometry" />
        </mxCell>
        <mxCell id="NFyLuNrWnH0UtmpVPblO-85" value="&lt;b&gt;商户履行域&lt;/b&gt;" style="rounded=0;whiteSpace=wrap;html=1;dashed=1;fillColor=#ffe6cc;strokeColor=#d79b00;verticalAlign=top;" vertex="1" parent="NFyLuNrWnH0UtmpVPblO-84">
          <mxGeometry width="540" height="110" as="geometry" />
        </mxCell>
        <mxCell id="NFyLuNrWnH0UtmpVPblO-86" value="fulfill-order-prod&lt;br&gt;商家履约产品" style="rounded=0;whiteSpace=wrap;html=1;" vertex="1" parent="NFyLuNrWnH0UtmpVPblO-84">
          <mxGeometry x="120" y="20" width="90" height="40" as="geometry" />
        </mxCell>
        <mxCell id="NFyLuNrWnH0UtmpVPblO-87" value="fulfill-order-core&lt;br&gt;商家履约核心" style="rounded=0;whiteSpace=wrap;html=1;" vertex="1" parent="NFyLuNrWnH0UtmpVPblO-84">
          <mxGeometry x="225" y="20" width="90" height="40" as="geometry" />
        </mxCell>
        <mxCell id="NFyLuNrWnH0UtmpVPblO-88" value="trans-delivery&lt;br&gt;履约协同" style="rounded=0;whiteSpace=wrap;html=1;" vertex="1" parent="NFyLuNrWnH0UtmpVPblO-84">
          <mxGeometry x="330" y="20" width="90" height="40" as="geometry" />
        </mxCell>
        <mxCell id="NFyLuNrWnH0UtmpVPblO-89" value="fulfill-strategy&lt;br&gt;商家履约策略" style="rounded=0;whiteSpace=wrap;html=1;" vertex="1" parent="NFyLuNrWnH0UtmpVPblO-84">
          <mxGeometry x="430" y="20" width="90" height="40" as="geometry" />
        </mxCell>
        <mxCell id="NFyLuNrWnH0UtmpVPblO-90" value="协同库" style="strokeWidth=2;html=1;shape=mxgraph.flowchart.database;whiteSpace=wrap;" vertex="1" parent="NFyLuNrWnH0UtmpVPblO-84">
          <mxGeometry x="335" y="70" width="80" height="30" as="geometry" />
        </mxCell>
        <mxCell id="NFyLuNrWnH0UtmpVPblO-91" value="策略库" style="strokeWidth=2;html=1;shape=mxgraph.flowchart.database;whiteSpace=wrap;" vertex="1" parent="NFyLuNrWnH0UtmpVPblO-84">
          <mxGeometry x="435" y="70" width="80" height="30" as="geometry" />
        </mxCell>
        <mxCell id="NFyLuNrWnH0UtmpVPblO-92" value="fulfill-notify&lt;br&gt;商家履约触达" style="rounded=0;whiteSpace=wrap;html=1;strokeColor=#FF0000;dashed=1;" vertex="1" parent="NFyLuNrWnH0UtmpVPblO-84">
          <mxGeometry x="10" y="20" width="90" height="80" as="geometry" />
        </mxCell>
        <mxCell id="NFyLuNrWnH0UtmpVPblO-93" value="履行库" style="strokeWidth=2;html=1;shape=mxgraph.flowchart.database;whiteSpace=wrap;" vertex="1" parent="NFyLuNrWnH0UtmpVPblO-84">
          <mxGeometry x="120" y="70" width="195" height="30" as="geometry" />
        </mxCell>
        <mxCell id="NFyLuNrWnH0UtmpVPblO-94" value="AOQ&lt;br&gt;商家订单" style="rounded=0;whiteSpace=wrap;html=1;fillColor=#d5e8d4;strokeColor=#FF0000;dashed=1;" vertex="1" parent="1">
          <mxGeometry x="855" y="310" width="90" height="80" as="geometry" />
        </mxCell>
        <mxCell id="NFyLuNrWnH0UtmpVPblO-95" value="&lt;b&gt;履约表达域&lt;/b&gt;" style="rounded=0;whiteSpace=wrap;html=1;dashed=1;fillColor=#d5e8d4;strokeColor=#82b366;verticalAlign=top;" vertex="1" parent="1">
          <mxGeometry x="-30" y="261.5" width="220" height="128.5" as="geometry" />
        </mxCell>
        <mxCell id="NFyLuNrWnH0UtmpVPblO-96" value="ASP&lt;br&gt;事件中心" style="rounded=0;whiteSpace=wrap;html=1;" vertex="1" parent="1">
          <mxGeometry x="84" y="289.5" width="90" height="40" as="geometry" />
        </mxCell>
        <mxCell id="NFyLuNrWnH0UtmpVPblO-97" value="AGG&lt;br&gt;用户订单" style="rounded=0;whiteSpace=wrap;html=1;" vertex="1" parent="1">
          <mxGeometry x="-15" y="289.5" width="90" height="40" as="geometry" />
        </mxCell>
        <mxCell id="NFyLuNrWnH0UtmpVPblO-98" value="事件库" style="strokeWidth=2;html=1;shape=mxgraph.flowchart.database;whiteSpace=wrap;" vertex="1" parent="1">
          <mxGeometry x="89.5" y="339.5" width="80" height="30" as="geometry" />
        </mxCell>
        <mxCell id="NFyLuNrWnH0UtmpVPblO-99" value="用户订单库" style="strokeWidth=2;html=1;shape=mxgraph.flowchart.database;whiteSpace=wrap;" vertex="1" parent="1">
          <mxGeometry x="-10" y="339.5" width="80" height="30" as="geometry" />
        </mxCell>
        <mxCell id="NFyLuNrWnH0UtmpVPblO-100" value="&lt;div style=&quot;text-align: left&quot;&gt;&lt;span style=&quot;background-color: rgb(248 , 249 , 250)&quot;&gt;A推单&lt;/span&gt;&lt;/div&gt;&lt;span style=&quot;background-color: rgb(248 , 249 , 250)&quot;&gt;&lt;div style=&quot;text-align: left&quot;&gt;&lt;strike&gt;B.拉单&lt;/strike&gt;&lt;/div&gt;&lt;div style=&quot;text-align: left&quot;&gt;C.履约阻断&lt;/div&gt;&lt;div style=&quot;text-align: left&quot;&gt;D.履约干预&lt;/div&gt;&lt;/span&gt;" style="edgeLabel;html=1;align=center;verticalAlign=middle;resizable=0;points=[];fontSize=12;" vertex="1" connectable="0" parent="1">
          <mxGeometry x="780" y="370" as="geometry" />
        </mxCell>
        <mxCell id="NFyLuNrWnH0UtmpVPblO-101" value="&lt;span style=&quot;color: rgb(0 , 0 , 0) ; font-family: &amp;#34;helvetica&amp;#34; ; font-size: 11px ; font-style: normal ; font-weight: 400 ; letter-spacing: normal ; text-align: center ; text-indent: 0px ; text-transform: none ; word-spacing: 0px ; background-color: rgb(255 , 255 , 255) ; display: inline ; float: none&quot;&gt;E.接单&lt;/span&gt;&lt;br style=&quot;color: rgb(0 , 0 , 0) ; font-family: &amp;#34;helvetica&amp;#34; ; font-size: 11px ; font-style: normal ; font-weight: 400 ; letter-spacing: normal ; text-align: center ; text-indent: 0px ; text-transform: none ; word-spacing: 0px&quot;&gt;&lt;strike&gt;&lt;span style=&quot;color: rgb(0 , 0 , 0) ; font-family: &amp;#34;helvetica&amp;#34; ; font-size: 11px ; font-style: normal ; font-weight: 400 ; letter-spacing: normal ; text-align: center ; text-indent: 0px ; text-transform: none ; word-spacing: 0px ; background-color: rgb(255 , 255 , 255) ; display: inline ; float: none&quot;&gt;F.消息触达&lt;/span&gt;&lt;br style=&quot;color: rgb(0 , 0 , 0) ; font-family: &amp;#34;helvetica&amp;#34; ; font-size: 11px ; font-style: normal ; font-weight: 400 ; letter-spacing: normal ; text-align: center ; text-indent: 0px ; text-transform: none ; word-spacing: 0px&quot;&gt;&lt;/strike&gt;&lt;span style=&quot;color: rgb(0 , 0 , 0) ; font-family: &amp;#34;helvetica&amp;#34; ; font-size: 11px ; font-style: normal ; font-weight: 400 ; letter-spacing: normal ; text-align: center ; text-indent: 0px ; text-transform: none ; word-spacing: 0px ; background-color: rgb(255 , 255 , 255) ; display: inline ; float: none&quot;&gt;G.信息同步&lt;/span&gt;&lt;br style=&quot;color: rgb(0 , 0 , 0) ; font-family: &amp;#34;helvetica&amp;#34; ; font-size: 11px ; font-style: normal ; font-weight: 400 ; letter-spacing: normal ; text-align: center ; text-indent: 0px ; text-transform: none ; word-spacing: 0px&quot;&gt;&lt;span style=&quot;color: rgb(0 , 0 , 0) ; font-family: &amp;#34;helvetica&amp;#34; ; font-size: 11px ; font-style: normal ; font-weight: 400 ; letter-spacing: normal ; text-align: center ; text-indent: 0px ; text-transform: none ; word-spacing: 0px ; background-color: rgb(255 , 255 , 255) ; display: inline ; float: none&quot;&gt;H.阻断同步&lt;br&gt;I.物流事件&lt;br&gt;&lt;/span&gt;" style="text;whiteSpace=wrap;html=1;fontSize=12;" vertex="1" parent="1">
          <mxGeometry x="680" y="420" width="80" height="80" as="geometry" />
        </mxCell>
        <mxCell id="NFyLuNrWnH0UtmpVPblO-102" value="" style="shape=flexArrow;endArrow=classic;html=1;fontSize=12;exitX=0.25;exitY=1;exitDx=0;exitDy=0;entryX=0.25;entryY=0;entryDx=0;entryDy=0;width=20;endSize=10.67;endWidth=30;" edge="1" parent="1" source="NFyLuNrWnH0UtmpVPblO-23" target="NFyLuNrWnH0UtmpVPblO-15">
          <mxGeometry width="50" height="50" relative="1" as="geometry">
            <mxPoint x="1270" y="480" as="sourcePoint" />
            <mxPoint x="1320" y="430" as="targetPoint" />
          </mxGeometry>
        </mxCell>
        <mxCell id="NFyLuNrWnH0UtmpVPblO-103" value="&lt;div style=&quot;text-align: left&quot;&gt;呼单&lt;/div&gt;物流阻断" style="edgeLabel;html=1;align=center;verticalAlign=middle;resizable=0;points=[];fontSize=12;" vertex="1" connectable="0" parent="NFyLuNrWnH0UtmpVPblO-102">
          <mxGeometry x="-0.4308" y="1" relative="1" as="geometry">
            <mxPoint x="34" y="23" as="offset" />
          </mxGeometry>
        </mxCell>
        <mxCell id="NFyLuNrWnH0UtmpVPblO-104" value="" style="shape=flexArrow;endArrow=classic;html=1;fontSize=12;exitX=0.709;exitY=0.009;exitDx=0;exitDy=0;entryX=0.711;entryY=1.009;entryDx=0;entryDy=0;width=20;endSize=10.67;endWidth=30;exitPerimeter=0;entryPerimeter=0;dashed=1;" edge="1" parent="1" source="NFyLuNrWnH0UtmpVPblO-15" target="NFyLuNrWnH0UtmpVPblO-23">
          <mxGeometry width="50" height="50" relative="1" as="geometry">
            <mxPoint x="1105" y="410" as="sourcePoint" />
            <mxPoint x="1105" y="540" as="targetPoint" />
          </mxGeometry>
        </mxCell>
        <mxCell id="NFyLuNrWnH0UtmpVPblO-105" value="&lt;div style=&quot;text-align: left&quot;&gt;信息回传&lt;/div&gt;阻断回传" style="edgeLabel;html=1;align=center;verticalAlign=middle;resizable=0;points=[];fontSize=12;" vertex="1" connectable="0" parent="NFyLuNrWnH0UtmpVPblO-104">
          <mxGeometry x="-0.4308" y="1" relative="1" as="geometry">
            <mxPoint x="38" y="-24" as="offset" />
          </mxGeometry>
        </mxCell>
        <mxCell id="NFyLuNrWnH0UtmpVPblO-106" value="AOQ&lt;br&gt;商家订单" style="rounded=0;whiteSpace=wrap;html=1;fillColor=#d5e8d4;strokeColor=#FF0000;dashed=1;" vertex="1" parent="1">
          <mxGeometry x="870" y="890" width="90" height="80" as="geometry" />
        </mxCell>
        <mxCell id="NFyLuNrWnH0UtmpVPblO-107" value="" style="shape=flexArrow;endArrow=classic;startArrow=classic;html=1;fontSize=12;exitX=1;exitY=0.5;exitDx=0;exitDy=0;entryX=0;entryY=0.5;entryDx=0;entryDy=0;" edge="1" parent="1">
          <mxGeometry width="100" height="100" relative="1" as="geometry">
            <mxPoint x="670" y="970" as="sourcePoint" />
            <mxPoint x="820" y="970" as="targetPoint" />
          </mxGeometry>
        </mxCell>
        <mxCell id="NFyLuNrWnH0UtmpVPblO-108" value="&lt;div style=&quot;text-align: left&quot;&gt;&lt;span style=&quot;background-color: rgb(248 , 249 , 250)&quot;&gt;A推单&lt;/span&gt;&lt;/div&gt;&lt;span style=&quot;background-color: rgb(248 , 249 , 250)&quot;&gt;&lt;div style=&quot;text-align: left&quot;&gt;&lt;strike&gt;B.拉单&lt;/strike&gt;&lt;/div&gt;&lt;div style=&quot;text-align: left&quot;&gt;C.履约阻断&lt;/div&gt;&lt;div style=&quot;text-align: left&quot;&gt;D.履约干预&lt;/div&gt;&lt;/span&gt;" style="edgeLabel;html=1;align=center;verticalAlign=middle;resizable=0;points=[];fontSize=12;" vertex="1" connectable="0" parent="NFyLuNrWnH0UtmpVPblO-107">
          <mxGeometry x="0.48" y="-1" relative="1" as="geometry">
            <mxPoint x="19" y="44" as="offset" />
          </mxGeometry>
        </mxCell>
        <mxCell id="NFyLuNrWnH0UtmpVPblO-109" value="&lt;span style=&quot;color: rgb(0 , 0 , 0) ; font-family: &amp;#34;helvetica&amp;#34; ; font-size: 11px ; font-style: normal ; font-weight: 400 ; letter-spacing: normal ; text-align: center ; text-indent: 0px ; text-transform: none ; word-spacing: 0px ; background-color: rgb(255 , 255 , 255) ; display: inline ; float: none&quot;&gt;E.接单&lt;/span&gt;&lt;br style=&quot;color: rgb(0 , 0 , 0) ; font-family: &amp;#34;helvetica&amp;#34; ; font-size: 11px ; font-style: normal ; font-weight: 400 ; letter-spacing: normal ; text-align: center ; text-indent: 0px ; text-transform: none ; word-spacing: 0px&quot;&gt;&lt;strike&gt;&lt;span style=&quot;color: rgb(0 , 0 , 0) ; font-family: &amp;#34;helvetica&amp;#34; ; font-size: 11px ; font-style: normal ; font-weight: 400 ; letter-spacing: normal ; text-align: center ; text-indent: 0px ; text-transform: none ; word-spacing: 0px ; background-color: rgb(255 , 255 , 255) ; display: inline ; float: none&quot;&gt;F.消息触达&lt;/span&gt;&lt;br style=&quot;color: rgb(0 , 0 , 0) ; font-family: &amp;#34;helvetica&amp;#34; ; font-size: 11px ; font-style: normal ; font-weight: 400 ; letter-spacing: normal ; text-align: center ; text-indent: 0px ; text-transform: none ; word-spacing: 0px&quot;&gt;&lt;/strike&gt;&lt;span style=&quot;color: rgb(0 , 0 , 0) ; font-family: &amp;#34;helvetica&amp;#34; ; font-size: 11px ; font-style: normal ; font-weight: 400 ; letter-spacing: normal ; text-align: center ; text-indent: 0px ; text-transform: none ; word-spacing: 0px ; background-color: rgb(255 , 255 , 255) ; display: inline ; float: none&quot;&gt;G.信息同步&lt;/span&gt;&lt;br style=&quot;color: rgb(0 , 0 , 0) ; font-family: &amp;#34;helvetica&amp;#34; ; font-size: 11px ; font-style: normal ; font-weight: 400 ; letter-spacing: normal ; text-align: center ; text-indent: 0px ; text-transform: none ; word-spacing: 0px&quot;&gt;&lt;span style=&quot;color: rgb(0 , 0 , 0) ; font-family: &amp;#34;helvetica&amp;#34; ; font-size: 11px ; font-style: normal ; font-weight: 400 ; letter-spacing: normal ; text-align: center ; text-indent: 0px ; text-transform: none ; word-spacing: 0px ; background-color: rgb(255 , 255 , 255) ; display: inline ; float: none&quot;&gt;H.阻断同步&lt;br&gt;I.物流事件&lt;br&gt;&lt;/span&gt;" style="text;whiteSpace=wrap;html=1;fontSize=12;" vertex="1" parent="1">
          <mxGeometry x="660" y="980" width="80" height="80" as="geometry" />
        </mxCell>
        <mxCell id="NFyLuNrWnH0UtmpVPblO-110" value="" style="shape=flexArrow;endArrow=classic;startArrow=classic;html=1;fontSize=12;entryX=0.75;entryY=0;entryDx=0;entryDy=0;" edge="1" parent="1" source="NFyLuNrWnH0UtmpVPblO-63" target="NFyLuNrWnH0UtmpVPblO-65">
          <mxGeometry width="100" height="100" relative="1" as="geometry">
            <mxPoint x="650" y="440" as="sourcePoint" />
            <mxPoint x="830" y="970" as="targetPoint" />
          </mxGeometry>
        </mxCell>
        <mxCell id="NFyLuNrWnH0UtmpVPblO-111" value="dove" style="ellipse;shape=cloud;whiteSpace=wrap;html=1;glass=1;strokeColor=#FF0000;" vertex="1" parent="1">
          <mxGeometry x="525" y="240" width="85" height="40" as="geometry" />
        </mxCell>
        <mxCell id="NFyLuNrWnH0UtmpVPblO-112" value="&lt;b&gt;buyer_id/shop_id数据库sharding&lt;/b&gt;" style="text;html=1;strokeColor=none;fillColor=none;align=center;verticalAlign=middle;whiteSpace=wrap;rounded=0;dashed=1;fontSize=12;" vertex="1" parent="1">
          <mxGeometry x="192.5" y="660" width="195" height="20" as="geometry" />
        </mxCell>
        <mxCell id="NFyLuNrWnH0UtmpVPblO-113" value="&lt;b&gt;buyer_id数据库sharding&lt;/b&gt;" style="text;html=1;strokeColor=none;fillColor=none;align=center;verticalAlign=middle;whiteSpace=wrap;rounded=0;dashed=1;fontSize=12;" vertex="1" parent="1">
          <mxGeometry x="181.25" y="1130" width="197.5" height="20" as="geometry" />
        </mxCell>
        <mxCell id="NFyLuNrWnH0UtmpVPblO-114" value="&lt;b&gt;Ioc/shop_id数据库sharding&lt;/b&gt;" style="text;html=1;strokeColor=none;fillColor=none;align=center;verticalAlign=middle;whiteSpace=wrap;rounded=0;dashed=1;fontSize=12;" vertex="1" parent="1">
          <mxGeometry x="1085" y="660" width="195" height="20" as="geometry" />
        </mxCell>
        <mxCell id="NFyLuNrWnH0UtmpVPblO-115" value="&lt;b&gt;Ioc/shop_id数据库sharding&lt;/b&gt;" style="text;html=1;strokeColor=none;fillColor=none;align=center;verticalAlign=middle;whiteSpace=wrap;rounded=0;dashed=1;fontSize=12;" vertex="1" parent="1">
          <mxGeometry x="1085" y="1130" width="195" height="20" as="geometry" />
        </mxCell>
        <mxCell id="NFyLuNrWnH0UtmpVPblO-116" value="" style="endArrow=none;dashed=1;html=1;strokeWidth=2;" edge="1" parent="1">
          <mxGeometry width="50" height="50" relative="1" as="geometry">
            <mxPoint x="740" y="1150" as="sourcePoint" />
            <mxPoint x="740" y="120" as="targetPoint" />
          </mxGeometry>
        </mxCell>
        <mxCell id="NFyLuNrWnH0UtmpVPblO-117" value="&lt;font style=&quot;font-size: 14px&quot;&gt;&lt;b&gt;弹内&lt;/b&gt;&lt;/font&gt;" style="text;html=1;align=center;verticalAlign=middle;resizable=0;points=[];autosize=1;strokeColor=none;" vertex="1" parent="1">
          <mxGeometry x="620" y="120" width="40" height="20" as="geometry" />
        </mxCell>
        <mxCell id="NFyLuNrWnH0UtmpVPblO-118" value="&lt;span style=&quot;font-size: 14px&quot;&gt;&lt;b&gt;弹外&lt;/b&gt;&lt;/span&gt;" style="text;html=1;align=center;verticalAlign=middle;resizable=0;points=[];autosize=1;strokeColor=none;" vertex="1" parent="1">
          <mxGeometry x="810" y="120" width="40" height="20" as="geometry" />
        </mxCell>
        <mxCell id="NFyLuNrWnH0UtmpVPblO-119" value="ADS&lt;br&gt;物流协同" style="rounded=0;whiteSpace=wrap;html=1;fillColor=#dae8fc;strokeColor=#6c8ebf;" vertex="1" parent="1">
          <mxGeometry x="530" y="880" width="90" height="40" as="geometry" />
        </mxCell>
      </root>
    </mxGraphModel>
  </diagram>
</mxfile>
